<svg xmlns="http://www.w3.org/2000/svg" width="60" height="40" viewBox="0 0 60 40" role="img" aria-label="flag">
<rect x="0" y="0" width="60" height="13.333333333333334" fill="#74ACDF"/><rect x="0" y="13.333333333333334" width="60" height="13.333333333333334" fill="#FFFFFF"/><rect x="0" y="26.666666666666668" width="60" height="13.333333333333334" fill="#74ACDF"/><circle cx="30" cy="20" r="3.5" fill="#F6B40E"/><line x1="34.0" y1="20.0" x2="36.2" y2="20.0" stroke="#F6B40E" stroke-width="0.8"/><line x1="33.46410161513776" y1="22.0" x2="35.36935750346352" y2="23.1" stroke="#F6B40E" stroke-width="0.8"/><line x1="32.0" y1="23.464101615137753" x2="33.1" y2="25.36935750346352" stroke="#F6B40E" stroke-width="0.8"/><line x1="30.0" y1="24.0" x2="30.0" y2="26.2" stroke="#F6B40E" stroke-width="0.8"/><line x1="28.0" y1="23.464101615137753" x2="26.900000000000002" y2="25.36935750346352" stroke="#F6B40E" stroke-width="0.8"/><line x1="26.535898384862247" y1="22.0" x2="24.63064249653648" y2="23.1" stroke="#F6B40E" stroke-width="0.8"/><line x1="26.0" y1="20.0" x2="23.8" y2="20.0" stroke="#F6B40E" stroke-width="0.8"/><line x1="26.535898384862247" y1="18.0" x2="24.63064249653648" y2="16.9" stroke="#F6B40E" stroke-width="0.8"/><line x1="28.0" y1="16.535898384862247" x2="26.9" y2="14.630642496536481" stroke="#F6B40E" stroke-width="0.8"/><line x1="30.0" y1="16.0" x2="30.0" y2="13.8" stroke="#F6B40E" stroke-width="0.8"/><line x1="32.0" y1="16.535898384862247" x2="33.1" y2="14.630642496536481" stroke="#F6B40E" stroke-width="0.8"/><line x1="33.46410161513775" y1="18.0" x2="35.36935750346352" y2="16.9" stroke="#F6B40E" stroke-width="0.8"/>
</svg>
