<svg xmlns="http://www.w3.org/2000/svg" width="60" height="40" viewBox="0 0 60 40" role="img" aria-label="flag">
<rect x="0" y="0" width="60" height="40" fill="#012169"/><rect x="0" y="0" width="30" height="20" fill="#012169"/><polygon points="0,2.4 3.5999999999999996,0 30,17.6 26.4,20" fill="#FFF"/><polygon points="26.4,0 30,2.4 3.5999999999999996,20 0,17.6" fill="#FFF"/><polygon points="0,3.5999999999999996 5.3999999999999995,0 30,16.4 24.599999999999998,20" fill="#C8102E"/><polygon points="24.599999999999998,0 30,3.5999999999999996 5.3999999999999995,20 0,16.4" fill="#C8102E"/><rect x="12.0" y="0" width="6.0" height="20" fill="#FFF"/><rect x="0" y="8.0" width="30" height="4.0" fill="#FFF"/><rect x="13.2" y="0" width="3.5999999999999996" height="20" fill="#C8102E"/><rect x="0" y="8.8" width="30" height="2.4" fill="#C8102E"/><polygon points="12.0,25.8 12.780990730411606,28.378256037775646 15.283692226365725,27.38134283219332 13.754870241927282,29.599462318878633 16.09469723116366,30.934587922616522 13.407296668442454,31.122281643345723 13.822311704293746,33.78406924519016 12.0,31.8 10.177688295706256,33.78406924519016 10.592703331557546,31.12228164334572 7.90530276883634,30.93458792261652 10.245129758072718,29.599462318878636 8.716307773634274,27.38134283219332 11.219009269588396,28.378256037775646" fill="#FFF"/><polygon points="44.0,6.8 44.582,8.199 46.092,8.32 44.942,9.306 45.293,10.78 44.0,9.99 42.707,10.78 43.058,9.306 41.908,8.32 43.418,8.199" fill="#FFF"/><polygon points="50.0,13.0 50.529,14.272 51.902,14.382 50.856,15.278 51.176,16.618 50.0,15.9 48.824,16.618 49.144,15.278 48.098,14.382 49.471,14.272" fill="#FFF"/><polygon points="46.0,20.0 46.529,21.272 47.902,21.382 46.856,22.278 47.176,23.618 46.0,22.9 44.824,23.618 45.144,22.278 44.098,21.382 45.471,21.272" fill="#FFF"/><polygon points="54.0,22.8 54.582,24.199 56.092,24.32 54.942,25.306 55.293,26.78 54.0,25.99 52.707,26.78 53.058,25.306 51.908,24.32 53.418,24.199" fill="#FFF"/><polygon points="49.0,29.3 49.45,30.381 50.617,30.475 49.728,31.236 49.999,32.375 49.0,31.765 48.001,32.375 48.272,31.236 47.383,30.475 48.55,30.381" fill="#FFF"/>
</svg>
