<svg xmlns="http://www.w3.org/2000/svg" width="60" height="40" viewBox="0 0 60 40" role="img" aria-label="flag">
<rect x="0" y="0" width="60" height="40" fill="#002F6C"/><polygon points="20,0 60,0 60,40" fill="#FECB00"/><polygon points="36.0,1.9 36.555,3.235 37.997,3.351 36.899,4.292 37.234,5.699 36.0,4.945 34.766,5.699 35.101,4.292 34.003,3.351 35.445,3.235" fill="#FFF"/><polygon points="39.3,6.4 39.855,7.735 41.297,7.851 40.199,8.792 40.534,10.199 39.3,9.445 38.066,10.199 38.401,8.792 37.303,7.851 38.745,7.735" fill="#FFF"/><polygon points="42.6,10.9 43.155,12.235 44.597,12.351 43.499,13.292 43.834,14.699 42.6,13.945 41.366,14.699 41.701,13.292 40.603,12.351 42.045,12.235" fill="#FFF"/><polygon points="45.9,15.4 46.455,16.735 47.897,16.851 46.799,17.792 47.134,19.199 45.9,18.445 44.666,19.199 45.001,17.792 43.903,16.851 45.345,16.735" fill="#FFF"/><polygon points="49.2,19.9 49.755,21.235 51.197,21.351 50.099,22.292 50.434,23.699 49.2,22.945 47.966,23.699 48.301,22.292 47.203,21.351 48.645,21.235" fill="#FFF"/><polygon points="52.5,24.4 53.055,25.735 54.497,25.851 53.399,26.792 53.734,28.199 52.5,27.445 51.266,28.199 51.601,26.792 50.503,25.851 51.945,25.735" fill="#FFF"/><polygon points="55.8,28.9 56.355,30.235 57.797,30.351 56.699,31.292 57.034,32.699 55.8,31.945 54.566,32.699 54.901,31.292 53.803,30.351 55.245,30.235" fill="#FFF"/><polygon points="59.1,33.4 59.655,34.735 61.097,34.851 59.999,35.792 60.334,37.199 59.1,36.445 57.866,37.199 58.201,35.792 57.103,34.851 58.545,34.735" fill="#FFF"/>
</svg>
