<svg xmlns="http://www.w3.org/2000/svg" width="60" height="40" viewBox="0 0 60 40" role="img" aria-label="flag">
<rect x="0" y="0" width="60" height="40" fill="#003893"/><rect x="0" y="22" width="60" height="3" fill="#FFFFFF"/><rect x="0" y="25" width="60" height="1.5" fill="#CF2027"/><rect x="0" y="26.5" width="60" height="3" fill="#FFFFFF"/><polygon points="14.072,16.6 14.442,17.49 15.403,17.567 14.671,18.195 14.895,19.133 14.072,18.63 13.249,19.133 13.473,18.195 12.74,17.567 13.701,17.49" fill="#F7D116"/><polygon points="16.643,13.891 17.013,14.781 17.974,14.858 17.242,15.485 17.466,16.423 16.643,15.921 15.82,16.423 16.044,15.485 15.311,14.858 16.273,14.781" fill="#F7D116"/><polygon points="20.164,12.644 20.534,13.534 21.495,13.611 20.763,14.239 20.987,15.176 20.164,14.674 19.341,15.176 19.565,14.239 18.832,13.611 19.793,13.534" fill="#F7D116"/><polygon points="23.867,13.131 24.237,14.022 25.198,14.099 24.466,14.726 24.69,15.664 23.867,15.161 23.044,15.664 23.268,14.726 22.535,14.099 23.497,14.022" fill="#F7D116"/><polygon points="26.945,15.247 27.315,16.137 28.277,16.214 27.544,16.842 27.768,17.78 26.945,17.277 26.122,17.78 26.346,16.842 25.614,16.214 26.575,16.137" fill="#F7D116"/><polygon points="28.727,18.529 29.098,19.42 30.059,19.497 29.327,20.124 29.55,21.062 28.727,20.559 27.905,21.062 28.128,20.124 27.396,19.497 28.357,19.42" fill="#F7D116"/><polygon points="28.825,22.263 29.195,23.154 30.157,23.231 29.424,23.858 29.648,24.796 28.825,24.293 28.002,24.796 28.226,23.858 27.494,23.231 28.455,23.154" fill="#F7D116"/><polygon points="27.217,25.635 27.587,26.525 28.549,26.602 27.816,27.229 28.04,28.167 27.217,27.665 26.394,28.167 26.618,27.229 25.886,26.602 26.847,26.525" fill="#F7D116"/><polygon points="24.254,27.908 24.624,28.799 25.585,28.876 24.853,29.503 25.077,30.441 24.254,29.938 23.431,30.441 23.655,29.503 22.922,28.876 23.884,28.799" fill="#F7D116"/><polygon points="20.581,28.589 20.952,29.479 21.913,29.556 21.18,30.184 21.404,31.122 20.581,30.619 19.758,31.122 19.982,30.184 19.25,29.556 20.211,29.479" fill="#F7D116"/>
</svg>
