<svg xmlns="http://www.w3.org/2000/svg" width="60" height="40" viewBox="0 0 60 40" role="img" aria-label="flag">
<rect x="0" y="0" width="60" height="13.333333333333334" fill="#FF0000"/><rect x="0" y="13.333333333333334" width="60" height="13.333333333333334" fill="#FFFFFF"/><rect x="0" y="26.666666666666668" width="60" height="13.333333333333334" fill="#171796"/><path d="M 25.0 14.0 L 35.0 14.0 L 35.0 22.4 Q 30 26.0 25.0 22.4 Z" fill="#FFF" stroke="#1E3A8A" stroke-width="0.6"/><rect x="25.0" y="14.0" width="2.5" height="1.6799999999999997" fill="#F00000"/><rect x="30.0" y="14.0" width="2.5" height="1.6799999999999997" fill="#F00000"/><rect x="27.5" y="15.68" width="2.5" height="1.6799999999999997" fill="#F00000"/><rect x="32.5" y="15.68" width="2.5" height="1.6799999999999997" fill="#F00000"/><rect x="25.0" y="17.36" width="2.5" height="1.6799999999999997" fill="#F00000"/><rect x="30.0" y="17.36" width="2.5" height="1.6799999999999997" fill="#F00000"/><rect x="27.5" y="19.04" width="2.5" height="1.6799999999999997" fill="#F00000"/><rect x="32.5" y="19.04" width="2.5" height="1.6799999999999997" fill="#F00000"/><rect x="25.0" y="20.72" width="2.5" height="1.6799999999999997" fill="#F00000"/><rect x="30.0" y="20.72" width="2.5" height="1.6799999999999997" fill="#F00000"/>
</svg>
