<svg xmlns="http://www.w3.org/2000/svg" width="60" height="40" viewBox="0 0 60 40" role="img" aria-label="flag">
<rect x="0" y="0" width="60" height="40" fill="#FFFFFF"/><path d="M30 14 A6 6 0 0 1 30 26 A3 3 0 0 0 30 20 A3 3 0 0 1 30 14" fill="#CD2E3A"/><path d="M30 26 A6 6 0 0 1 30 14 A3 3 0 0 0 30 20 A3 3 0 0 1 30 26" fill="#0047A0"/><rect x="10" y="9" width="6" height="0.8" fill="#000000"/><rect x="10" y="11" width="6" height="0.8" fill="#000000"/><rect x="10" y="13" width="6" height="0.8" fill="#000000"/><rect x="44" y="9" width="6" height="0.8" fill="#000000"/><rect x="44" y="11" width="6" height="0.8" fill="#000000"/><rect x="44" y="13" width="6" height="0.8" fill="#000000"/><rect x="10" y="27" width="6" height="0.8" fill="#000000"/><rect x="10" y="29" width="6" height="0.8" fill="#000000"/><rect x="10" y="31" width="6" height="0.8" fill="#000000"/><rect x="44" y="27" width="6" height="0.8" fill="#000000"/><rect x="44" y="29" width="6" height="0.8" fill="#000000"/><rect x="44" y="31" width="6" height="0.8" fill="#000000"/>
</svg>
