<svg xmlns="http://www.w3.org/2000/svg" width="60" height="40" viewBox="0 0 60 40" role="img" aria-label="flag">
<rect x="0" y="0" width="60" height="40" fill="#012169"/><rect x="0" y="0" width="30" height="20" fill="#012169"/><polygon points="0,2.4 3.5999999999999996,0 30,17.6 26.4,20" fill="#FFF"/><polygon points="26.4,0 30,2.4 3.5999999999999996,20 0,17.6" fill="#FFF"/><polygon points="0,3.5999999999999996 5.3999999999999995,0 30,16.4 24.599999999999998,20" fill="#C8102E"/><polygon points="24.599999999999998,0 30,3.5999999999999996 5.3999999999999995,20 0,16.4" fill="#C8102E"/><rect x="12.0" y="0" width="6.0" height="20" fill="#FFF"/><rect x="0" y="8.0" width="30" height="4.0" fill="#FFF"/><rect x="13.2" y="0" width="3.5999999999999996" height="20" fill="#C8102E"/><rect x="0" y="8.8" width="30" height="2.4" fill="#C8102E"/><polygon points="40.0,7.7 40.608,9.163 42.187,9.289 40.984,10.32 41.352,11.861 40.0,11.035 38.648,11.861 39.016,10.32 37.813,9.289 39.392,9.163" fill="#CC142B" stroke="#FFF" stroke-width="0.8"/><polygon points="48.0,12.7 48.608,14.163 50.187,14.289 48.984,15.32 49.352,16.861 48.0,16.035 46.648,16.861 47.016,15.32 45.813,14.289 47.392,14.163" fill="#CC142B" stroke="#FFF" stroke-width="0.8"/><polygon points="43.0,19.7 43.608,21.163 45.187,21.289 43.984,22.32 44.352,23.861 43.0,23.035 41.648,23.861 42.016,22.32 40.813,21.289 42.392,21.163" fill="#CC142B" stroke="#FFF" stroke-width="0.8"/><polygon points="51.0,25.7 51.608,27.163 53.187,27.289 51.984,28.32 52.352,29.861 51.0,29.035 49.648,29.861 50.016,28.32 48.813,27.289 50.392,27.163" fill="#CC142B" stroke="#FFF" stroke-width="0.8"/>
</svg>
