<svg xmlns="http://www.w3.org/2000/svg" width="60" height="40" viewBox="0 0 60 40" role="img" aria-label="flag">
<rect x="0" y="0" width="60" height="40" fill="#002395"/><rect x="0" y="0" width="60" height="20.0" fill="#DE3831"/><polygon points="0,0 14,0 28,14 60,14 60,18 26,18 12,6 0,6" fill="#FFFFFF"/><polygon points="0,40 14,40 28,26 60,26 60,22 26,22 12,34 0,34" fill="#FFFFFF"/><polygon points="0,0 12,0 28,15 60,15 60,17 27,17 11,4 0,4" fill="#FFB612"/><polygon points="0,40 12,40 28,25 60,25 60,23 27,23 11,36 0,36" fill="#FFB612"/><polygon points="0,0 10,0 24,16 60,16 60,24 24,24 10,40 0,40 0,30 12,20 0,10" fill="#007A4D"/><polygon points="0,0 18,20 0,40" fill="#000000"/>
</svg>
