<svg xmlns="http://www.w3.org/2000/svg" width="60" height="40" viewBox="0 0 60 40" role="img" aria-label="flag">
<rect x="0" y="0.0" width="60" height="3.076923076923077" fill="#B22234"/><rect x="0" y="3.076923076923077" width="60" height="3.076923076923077" fill="#FFFFFF"/><rect x="0" y="6.153846153846154" width="60" height="3.076923076923077" fill="#B22234"/><rect x="0" y="9.230769230769232" width="60" height="3.076923076923077" fill="#FFFFFF"/><rect x="0" y="12.307692307692308" width="60" height="3.076923076923077" fill="#B22234"/><rect x="0" y="15.384615384615385" width="60" height="3.076923076923077" fill="#FFFFFF"/><rect x="0" y="18.461538461538463" width="60" height="3.076923076923077" fill="#B22234"/><rect x="0" y="21.53846153846154" width="60" height="3.076923076923077" fill="#FFFFFF"/><rect x="0" y="24.615384615384617" width="60" height="3.076923076923077" fill="#B22234"/><rect x="0" y="27.692307692307693" width="60" height="3.076923076923077" fill="#FFFFFF"/><rect x="0" y="30.76923076923077" width="60" height="3.076923076923077" fill="#B22234"/><rect x="0" y="33.84615384615385" width="60" height="3.076923076923077" fill="#FFFFFF"/><rect x="0" y="36.92307692307693" width="60" height="3.076923076923077" fill="#B22234"/><rect x="0" y="0" width="24.0" height="21.53846153846154" fill="#3C3B6E"/><polygon points="4.0,2.3 4.185,2.745 4.666,2.784 4.3,3.097 4.411,3.566 4.0,3.315 3.589,3.566 3.7,3.097 3.334,2.784 3.815,2.745" fill="#FFFFFF"/><polygon points="7.2,2.3 7.385,2.745 7.866,2.784 7.5,3.097 7.611,3.566 7.2,3.315 6.789,3.566 6.9,3.097 6.534,2.784 7.015,2.745" fill="#FFFFFF"/><polygon points="10.4,2.3 10.585,2.745 11.066,2.784 10.7,3.097 10.811,3.566 10.4,3.315 9.989,3.566 10.1,3.097 9.734,2.784 10.215,2.745" fill="#FFFFFF"/><polygon points="13.6,2.3 13.785,2.745 14.266,2.784 13.9,3.097 14.011,3.566 13.6,3.315 13.189,3.566 13.3,3.097 12.934,2.784 13.415,2.745" fill="#FFFFFF"/><polygon points="16.8,2.3 16.985,2.745 17.466,2.784 17.1,3.097 17.211,3.566 16.8,3.315 16.389,3.566 16.5,3.097 16.134,2.784 16.615,2.745" fill="#FFFFFF"/><polygon points="20.0,2.3 20.185,2.745 20.666,2.784 20.3,3.097 20.411,3.566 20.0,3.315 19.589,3.566 19.7,3.097 19.334,2.784 19.815,2.745" fill="#FFFFFF"/><polygon points="5.6,5.4 5.785,5.845 6.266,5.884 5.9,6.197 6.011,6.666 5.6,6.415 5.189,6.666 5.3,6.197 4.934,5.884 5.415,5.845" fill="#FFFFFF"/><polygon points="8.8,5.4 8.985,5.845 9.466,5.884 9.1,6.197 9.211,6.666 8.8,6.415 8.389,6.666 8.5,6.197 8.134,5.884 8.615,5.845" fill="#FFFFFF"/><polygon points="12.0,5.4 12.185,5.845 12.666,5.884 12.3,6.197 12.411,6.666 12.0,6.415 11.589,6.666 11.7,6.197 11.334,5.884 11.815,5.845" fill="#FFFFFF"/><polygon points="15.2,5.4 15.385,5.845 15.866,5.884 15.5,6.197 15.611,6.666 15.2,6.415 14.789,6.666 14.9,6.197 14.534,5.884 15.015,5.845" fill="#FFFFFF"/><polygon points="18.4,5.4 18.585,5.845 19.066,5.884 18.7,6.197 18.811,6.666 18.4,6.415 17.989,6.666 18.1,6.197 17.734,5.884 18.215,5.845" fill="#FFFFFF"/><polygon points="21.6,5.4 21.785,5.845 22.266,5.884 21.9,6.197 22.011,6.666 21.6,6.415 21.189,6.666 21.3,6.197 20.934,5.884 21.415,5.845" fill="#FFFFFF"/><polygon points="4.0,8.5 4.185,8.945 4.666,8.984 4.3,9.297 4.411,9.766 4.0,9.515 3.589,9.766 3.7,9.297 3.334,8.984 3.815,8.945" fill="#FFFFFF"/><polygon points="7.2,8.5 7.385,8.945 7.866,8.984 7.5,9.297 7.611,9.766 7.2,9.515 6.789,9.766 6.9,9.297 6.534,8.984 7.015,8.945" fill="#FFFFFF"/><polygon points="10.4,8.5 10.585,8.945 11.066,8.984 10.7,9.297 10.811,9.766 10.4,9.515 9.989,9.766 10.1,9.297 9.734,8.984 10.215,8.945" fill="#FFFFFF"/><polygon points="13.6,8.5 13.785,8.945 14.266,8.984 13.9,9.297 14.011,9.766 13.6,9.515 13.189,9.766 13.3,9.297 12.934,8.984 13.415,8.945" fill="#FFFFFF"/><polygon points="16.8,8.5 16.985,8.945 17.466,8.984 17.1,9.297 17.211,9.766 16.8,9.515 16.389,9.766 16.5,9.297 16.134,8.984 16.615,8.945" fill="#FFFFFF"/><polygon points="20.0,8.5 20.185,8.945 20.666,8.984 20.3,9.297 20.411,9.766 20.0,9.515 19.589,9.766 19.7,9.297 19.334,8.984 19.815,8.945" fill="#FFFFFF"/><polygon points="5.6,11.6 5.785,12.045 6.266,12.084 5.9,12.397 6.011,12.866 5.6,12.615 5.189,12.866 5.3,12.397 4.934,12.084 5.415,12.045" fill="#FFFFFF"/><polygon points="8.8,11.6 8.985,12.045 9.466,12.084 9.1,12.397 9.211,12.866 8.8,12.615 8.389,12.866 8.5,12.397 8.134,12.084 8.615,12.045" fill="#FFFFFF"/><polygon points="12.0,11.6 12.185,12.045 12.666,12.084 12.3,12.397 12.411,12.866 12.0,12.615 11.589,12.866 11.7,12.397 11.334,12.084 11.815,12.045" fill="#FFFFFF"/><polygon points="15.2,11.6 15.385,12.045 15.866,12.084 15.5,12.397 15.611,12.866 15.2,12.615 14.789,12.866 14.9,12.397 14.534,12.084 15.015,12.045" fill="#FFFFFF"/><polygon points="18.4,11.6 18.585,12.045 19.066,12.084 18.7,12.397 18.811,12.866 18.4,12.615 17.989,12.866 18.1,12.397 17.734,12.084 18.215,12.045" fill="#FFFFFF"/><polygon points="21.6,11.6 21.785,12.045 22.266,12.084 21.9,12.397 22.011,12.866 21.6,12.615 21.189,12.866 21.3,12.397 20.934,12.084 21.415,12.045" fill="#FFFFFF"/><polygon points="4.0,14.7 4.185,15.145 4.666,15.184 4.3,15.497 4.411,15.966 4.0,15.715 3.589,15.966 3.7,15.497 3.334,15.184 3.815,15.145" fill="#FFFFFF"/><polygon points="7.2,14.7 7.385,15.145 7.866,15.184 7.5,15.497 7.611,15.966 7.2,15.715 6.789,15.966 6.9,15.497 6.534,15.184 7.015,15.145" fill="#FFFFFF"/><polygon points="10.4,14.7 10.585,15.145 11.066,15.184 10.7,15.497 10.811,15.966 10.4,15.715 9.989,15.966 10.1,15.497 9.734,15.184 10.215,15.145" fill="#FFFFFF"/><polygon points="13.6,14.7 13.785,15.145 14.266,15.184 13.9,15.497 14.011,15.966 13.6,15.715 13.189,15.966 13.3,15.497 12.934,15.184 13.415,15.145" fill="#FFFFFF"/><polygon points="16.8,14.7 16.985,15.145 17.466,15.184 17.1,15.497 17.211,15.966 16.8,15.715 16.389,15.966 16.5,15.497 16.134,15.184 16.615,15.145" fill="#FFFFFF"/><polygon points="20.0,14.7 20.185,15.145 20.666,15.184 20.3,15.497 20.411,15.966 20.0,15.715 19.589,15.966 19.7,15.497 19.334,15.184 19.815,15.145" fill="#FFFFFF"/>
</svg>
