<svg xmlns="http://www.w3.org/2000/svg" width="60" height="40" viewBox="0 0 60 40" role="img" aria-label="flag">
<rect x="0" y="0" width="60" height="9" fill="#1EB5E0"/><rect x="0" y="9" width="60" height="1" fill="#CE1126"/><rect x="0" y="10" width="60" height="20" fill="#FFFFFF"/><rect x="0" y="30" width="60" height="1" fill="#CE1126"/><rect x="0" y="31" width="60" height="9" fill="#1FAA59"/><circle cx="9" cy="7" r="3.2" fill="#FFFFFF"/><circle cx="10" cy="7" r="2.7" fill="#1EB5E0"/><polygon points="16.0,3.0 16.265,3.636 16.951,3.691 16.428,4.139 16.588,4.809 16.0,4.45 15.412,4.809 15.572,4.139 15.049,3.691 15.735,3.636" fill="#FFFFFF"/><polygon points="20.0,3.0 20.265,3.636 20.951,3.691 20.428,4.139 20.588,4.809 20.0,4.45 19.412,4.809 19.572,4.139 19.049,3.691 19.735,3.636" fill="#FFFFFF"/><polygon points="24.0,3.0 24.265,3.636 24.951,3.691 24.428,4.139 24.588,4.809 24.0,4.45 23.412,4.809 23.572,4.139 23.049,3.691 23.735,3.636" fill="#FFFFFF"/><polygon points="28.0,3.0 28.265,3.636 28.951,3.691 28.428,4.139 28.588,4.809 28.0,4.45 27.412,4.809 27.572,4.139 27.049,3.691 27.735,3.636" fill="#FFFFFF"/><polygon points="17.8,6.0 18.065,6.636 18.751,6.691 18.228,7.139 18.388,7.809 17.8,7.45 17.212,7.809 17.372,7.139 16.849,6.691 17.535,6.636" fill="#FFFFFF"/><polygon points="21.8,6.0 22.065,6.636 22.751,6.691 22.228,7.139 22.388,7.809 21.8,7.45 21.212,7.809 21.372,7.139 20.849,6.691 21.535,6.636" fill="#FFFFFF"/><polygon points="25.8,6.0 26.065,6.636 26.751,6.691 26.228,7.139 26.388,7.809 25.8,7.45 25.212,7.809 25.372,7.139 24.849,6.691 25.535,6.636" fill="#FFFFFF"/><polygon points="16.0,9.0 16.265,9.636 16.951,9.691 16.428,10.139 16.588,10.809 16.0,10.45 15.412,10.809 15.572,10.139 15.049,9.691 15.735,9.636" fill="#FFFFFF"/><polygon points="20.0,9.0 20.265,9.636 20.951,9.691 20.428,10.139 20.588,10.809 20.0,10.45 19.412,10.809 19.572,10.139 19.049,9.691 19.735,9.636" fill="#FFFFFF"/><polygon points="24.0,9.0 24.265,9.636 24.951,9.691 24.428,10.139 24.588,10.809 24.0,10.45 23.412,10.809 23.572,10.139 23.049,9.691 23.735,9.636" fill="#FFFFFF"/><polygon points="28.0,9.0 28.265,9.636 28.951,9.691 28.428,10.139 28.588,10.809 28.0,10.45 27.412,10.809 27.572,10.139 27.049,9.691 27.735,9.636" fill="#FFFFFF"/><polygon points="32.0,6.0 32.265,6.636 32.951,6.691 32.428,7.139 32.588,7.809 32.0,7.45 31.412,7.809 31.572,7.139 31.049,6.691 31.735,6.636" fill="#FFFFFF"/>
</svg>
